<mxfile host="app.diagrams.net" modified="2024-05-21T13:35:42.292Z" agent="Mozilla/5.0 (Windows NT 10.0; Win64; x64) AppleWebKit/537.36 (KHTML, like Gecko) Chrome/123.0.0.0 Safari/537.36 OPR/109.0.0.0" etag="q6yF-_QK5X6u4ebFh6aL" version="24.4.4" type="device">
  <diagram name="Página-1" id="Az1MBVrLItpsRqSeYvPm">
    <mxGraphModel dx="1393" dy="758" grid="1" gridSize="10" guides="1" tooltips="1" connect="1" arrows="1" fold="1" page="1" pageScale="1" pageWidth="827" pageHeight="1169" math="0" shadow="0">
      <root>
        <mxCell id="0" />
        <mxCell id="1" parent="0" />
        <mxCell id="jO8XkhJTbPjd5lJuH_p3-46" value="" style="html=1;points=[[0,0,0,0,5],[0,1,0,0,-5],[1,0,0,0,5],[1,1,0,0,-5]];perimeter=orthogonalPerimeter;outlineConnect=0;targetShapes=umlLifeline;portConstraint=eastwest;newEdgeStyle={&quot;curved&quot;:0,&quot;rounded&quot;:0};" vertex="1" parent="1">
          <mxGeometry x="1280" y="350" width="10" height="40" as="geometry" />
        </mxCell>
        <mxCell id="jO8XkhJTbPjd5lJuH_p3-4" value="" style="rounded=0;whiteSpace=wrap;html=1;fontColor=#000000;fillColor=#000000;fillStyle=solid;gradientColor=none;strokeColor=none;" vertex="1" parent="1">
          <mxGeometry x="655" y="250" width="20" height="270" as="geometry" />
        </mxCell>
        <mxCell id="m6o7njRmxbO1QwIaCAdQ-5" value="" style="rounded=0;whiteSpace=wrap;html=1;fontColor=#000000;fillColor=#000000;fillStyle=solid;gradientColor=none;strokeColor=none;" parent="1" vertex="1">
          <mxGeometry x="260" y="240" width="20" height="280" as="geometry" />
        </mxCell>
        <mxCell id="m6o7njRmxbO1QwIaCAdQ-20" style="edgeStyle=orthogonalEdgeStyle;rounded=0;orthogonalLoop=1;jettySize=auto;html=1;entryX=-0.25;entryY=0.37;entryDx=0;entryDy=0;entryPerimeter=0;exitX=0.9;exitY=0.37;exitDx=0;exitDy=0;exitPerimeter=0;" parent="1" edge="1">
          <mxGeometry relative="1" as="geometry">
            <mxPoint x="485" y="290.0000000000001" as="sourcePoint" />
            <mxPoint x="652" y="290.0000000000001" as="targetPoint" />
            <Array as="points" />
          </mxGeometry>
        </mxCell>
        <mxCell id="m6o7njRmxbO1QwIaCAdQ-21" value="Verificar(Conteúdo)" style="edgeLabel;html=1;align=center;verticalAlign=middle;resizable=0;points=[];" parent="m6o7njRmxbO1QwIaCAdQ-20" vertex="1" connectable="0">
          <mxGeometry x="0.3241" y="2" relative="1" as="geometry">
            <mxPoint x="-31" y="-8" as="offset" />
          </mxGeometry>
        </mxCell>
        <mxCell id="m6o7njRmxbO1QwIaCAdQ-7" value="" style="endArrow=none;dashed=1;html=1;rounded=0;exitX=0.5;exitY=0;exitDx=0;exitDy=0;" parent="1" source="m6o7njRmxbO1QwIaCAdQ-5" edge="1">
          <mxGeometry width="50" height="50" relative="1" as="geometry">
            <mxPoint x="419" y="290" as="sourcePoint" />
            <mxPoint x="270" y="180" as="targetPoint" />
          </mxGeometry>
        </mxCell>
        <mxCell id="m6o7njRmxbO1QwIaCAdQ-8" value="" style="endArrow=none;dashed=1;html=1;rounded=0;exitX=0.5;exitY=0;exitDx=0;exitDy=0;entryX=0.5;entryY=1;entryDx=0;entryDy=0;" parent="1" source="jO8XkhJTbPjd5lJuH_p3-3" target="jO8XkhJTbPjd5lJuH_p3-18" edge="1">
          <mxGeometry width="50" height="50" relative="1" as="geometry">
            <mxPoint x="533.5" y="240" as="sourcePoint" />
            <mxPoint x="480" y="180" as="targetPoint" />
          </mxGeometry>
        </mxCell>
        <mxCell id="m6o7njRmxbO1QwIaCAdQ-9" value="" style="endArrow=classic;html=1;rounded=0;" parent="1" edge="1">
          <mxGeometry width="50" height="50" relative="1" as="geometry">
            <mxPoint x="265" y="270" as="sourcePoint" />
            <mxPoint x="465" y="270" as="targetPoint" />
          </mxGeometry>
        </mxCell>
        <mxCell id="m6o7njRmxbO1QwIaCAdQ-10" value="Obter URL" style="edgeLabel;html=1;align=center;verticalAlign=middle;resizable=0;points=[];" parent="m6o7njRmxbO1QwIaCAdQ-9" vertex="1" connectable="0">
          <mxGeometry x="-0.7425" y="-2" relative="1" as="geometry">
            <mxPoint x="88" y="-12" as="offset" />
          </mxGeometry>
        </mxCell>
        <mxCell id="m6o7njRmxbO1QwIaCAdQ-16" value="&lt;font style=&quot;font-size: 14px;&quot;&gt;Storage&lt;/font&gt;" style="rounded=0;whiteSpace=wrap;html=1;gradientColor=none;fillColor=none;strokeWidth=11;" parent="1" vertex="1">
          <mxGeometry x="600" y="120" width="130" height="50" as="geometry" />
        </mxCell>
        <mxCell id="m6o7njRmxbO1QwIaCAdQ-18" value="" style="endArrow=none;dashed=1;html=1;rounded=0;entryX=0.5;entryY=1;entryDx=0;entryDy=0;" parent="1" target="m6o7njRmxbO1QwIaCAdQ-16" edge="1">
          <mxGeometry width="50" height="50" relative="1" as="geometry">
            <mxPoint x="665" y="250" as="sourcePoint" />
            <mxPoint x="450" y="280" as="targetPoint" />
            <Array as="points">
              <mxPoint x="665" y="220" />
            </Array>
          </mxGeometry>
        </mxCell>
        <mxCell id="QWoGaYasi8DG62Bnixs3-18" value="" style="endArrow=none;dashed=1;html=1;rounded=0;exitX=0.5;exitY=0;exitDx=0;exitDy=0;" parent="1" source="QWoGaYasi8DG62Bnixs3-17" edge="1">
          <mxGeometry width="50" height="50" relative="1" as="geometry">
            <mxPoint x="351" y="1440" as="sourcePoint" />
            <mxPoint x="96" y="1520" as="targetPoint" />
          </mxGeometry>
        </mxCell>
        <mxCell id="jO8XkhJTbPjd5lJuH_p3-1" value="&lt;font style=&quot;font-size: 14px;&quot;&gt;URL Frontier&lt;/font&gt;" style="rounded=0;whiteSpace=wrap;html=1;gradientColor=none;fillColor=none;strokeWidth=11;" vertex="1" parent="1">
          <mxGeometry x="205" y="120" width="130" height="50" as="geometry" />
        </mxCell>
        <mxCell id="jO8XkhJTbPjd5lJuH_p3-3" value="" style="rounded=0;whiteSpace=wrap;html=1;fontColor=#000000;fillColor=#000000;fillStyle=solid;gradientColor=none;strokeColor=none;" vertex="1" parent="1">
          <mxGeometry x="465" y="250" width="20" height="270" as="geometry" />
        </mxCell>
        <mxCell id="jO8XkhJTbPjd5lJuH_p3-16" value="Conteúdo não visto" style="html=1;verticalAlign=bottom;endArrow=open;dashed=1;endSize=8;curved=0;rounded=0;entryX=1.05;entryY=0.633;entryDx=0;entryDy=0;entryPerimeter=0;" edge="1" parent="1">
          <mxGeometry x="0.0059" relative="1" as="geometry">
            <mxPoint x="650" y="341" as="sourcePoint" />
            <mxPoint x="486" y="340.9100000000001" as="targetPoint" />
            <Array as="points" />
            <mxPoint as="offset" />
          </mxGeometry>
        </mxCell>
        <mxCell id="jO8XkhJTbPjd5lJuH_p3-18" value="&lt;font style=&quot;font-size: 14px;&quot;&gt;ContentSeenModule&lt;/font&gt;" style="rounded=0;whiteSpace=wrap;html=1;gradientColor=none;fillColor=none;strokeWidth=11;" vertex="1" parent="1">
          <mxGeometry x="410" y="120" width="130" height="50" as="geometry" />
        </mxCell>
        <mxCell id="jO8XkhJTbPjd5lJuH_p3-19" value="&lt;font style=&quot;font-size: 14px;&quot;&gt;LinkExtractor&lt;/font&gt;" style="rounded=0;whiteSpace=wrap;html=1;gradientColor=none;fillColor=none;strokeWidth=11;" vertex="1" parent="1">
          <mxGeometry x="820" y="120" width="130" height="50" as="geometry" />
        </mxCell>
        <mxCell id="jO8XkhJTbPjd5lJuH_p3-20" value="&lt;font style=&quot;font-size: 14px;&quot;&gt;URLDeDup&lt;/font&gt;" style="rounded=0;whiteSpace=wrap;html=1;gradientColor=none;fillColor=none;strokeWidth=11;" vertex="1" parent="1">
          <mxGeometry x="1020" y="120" width="130" height="50" as="geometry" />
        </mxCell>
        <mxCell id="jO8XkhJTbPjd5lJuH_p3-21" value="&lt;font style=&quot;font-size: 14px;&quot;&gt;URLFilter&lt;/font&gt;" style="rounded=0;whiteSpace=wrap;html=1;gradientColor=none;fillColor=none;strokeWidth=11;" vertex="1" parent="1">
          <mxGeometry x="1210" y="120" width="130" height="50" as="geometry" />
        </mxCell>
        <mxCell id="jO8XkhJTbPjd5lJuH_p3-22" value="" style="rounded=0;whiteSpace=wrap;html=1;fontColor=#000000;fillColor=#000000;fillStyle=solid;gradientColor=none;strokeColor=none;" vertex="1" parent="1">
          <mxGeometry x="870" y="250" width="20" height="270" as="geometry" />
        </mxCell>
        <mxCell id="jO8XkhJTbPjd5lJuH_p3-23" value="" style="rounded=0;whiteSpace=wrap;html=1;fontColor=#000000;fillColor=#000000;fillStyle=solid;gradientColor=none;strokeColor=none;" vertex="1" parent="1">
          <mxGeometry x="1070" y="250" width="20" height="270" as="geometry" />
        </mxCell>
        <mxCell id="jO8XkhJTbPjd5lJuH_p3-24" value="" style="rounded=0;whiteSpace=wrap;html=1;fontColor=#000000;fillColor=#000000;fillStyle=solid;gradientColor=none;strokeColor=none;" vertex="1" parent="1">
          <mxGeometry x="1270" y="250" width="20" height="270" as="geometry" />
        </mxCell>
        <mxCell id="jO8XkhJTbPjd5lJuH_p3-26" value="" style="endArrow=classic;html=1;rounded=0;" edge="1" parent="1">
          <mxGeometry width="50" height="50" relative="1" as="geometry">
            <mxPoint x="265" y="374.5" as="sourcePoint" />
            <mxPoint x="465" y="374.5" as="targetPoint" />
          </mxGeometry>
        </mxCell>
        <mxCell id="jO8XkhJTbPjd5lJuH_p3-27" value="Armazenar(Conteúdo)" style="edgeLabel;html=1;align=center;verticalAlign=middle;resizable=0;points=[];" vertex="1" connectable="0" parent="jO8XkhJTbPjd5lJuH_p3-26">
          <mxGeometry x="-0.7425" y="-2" relative="1" as="geometry">
            <mxPoint x="88" y="-12" as="offset" />
          </mxGeometry>
        </mxCell>
        <mxCell id="jO8XkhJTbPjd5lJuH_p3-28" value="" style="endArrow=classic;html=1;rounded=0;" edge="1" parent="1">
          <mxGeometry width="50" height="50" relative="1" as="geometry">
            <mxPoint x="265" y="420" as="sourcePoint" />
            <mxPoint x="465" y="420" as="targetPoint" />
          </mxGeometry>
        </mxCell>
        <mxCell id="jO8XkhJTbPjd5lJuH_p3-29" value="ExtrairLinks(Conteúdo)" style="edgeLabel;html=1;align=center;verticalAlign=middle;resizable=0;points=[];" vertex="1" connectable="0" parent="jO8XkhJTbPjd5lJuH_p3-28">
          <mxGeometry x="-0.7425" y="-2" relative="1" as="geometry">
            <mxPoint x="88" y="-12" as="offset" />
          </mxGeometry>
        </mxCell>
        <mxCell id="jO8XkhJTbPjd5lJuH_p3-31" value="Adicionar à Fila" style="html=1;verticalAlign=bottom;endArrow=open;dashed=1;endSize=8;curved=0;rounded=0;entryX=1.05;entryY=0.633;entryDx=0;entryDy=0;entryPerimeter=0;" edge="1" parent="1">
          <mxGeometry x="0.0576" relative="1" as="geometry">
            <mxPoint x="449" y="490" as="sourcePoint" />
            <mxPoint x="280" y="491" as="targetPoint" />
            <Array as="points">
              <mxPoint x="460" y="490" />
              <mxPoint x="449" y="490.4" />
            </Array>
            <mxPoint as="offset" />
          </mxGeometry>
        </mxCell>
        <mxCell id="jO8XkhJTbPjd5lJuH_p3-39" value="Salvar(Conteúdo)" style="html=1;verticalAlign=bottom;endArrow=open;dashed=1;endSize=8;curved=0;rounded=0;entryX=1.05;entryY=0.633;entryDx=0;entryDy=0;entryPerimeter=0;exitX=-0.2;exitY=0.589;exitDx=0;exitDy=0;exitPerimeter=0;" edge="1" parent="1">
          <mxGeometry x="0.0059" relative="1" as="geometry">
            <mxPoint x="866" y="384.5" as="sourcePoint" />
            <mxPoint x="675" y="385.47000000000014" as="targetPoint" />
            <Array as="points" />
            <mxPoint as="offset" />
          </mxGeometry>
        </mxCell>
        <mxCell id="jO8XkhJTbPjd5lJuH_p3-42" value="URL Válidas" style="html=1;verticalAlign=bottom;endArrow=open;dashed=1;endSize=8;curved=0;rounded=0;exitX=-0.2;exitY=0.589;exitDx=0;exitDy=0;exitPerimeter=0;" edge="1" parent="1">
          <mxGeometry x="0.0059" relative="1" as="geometry">
            <mxPoint x="1070" y="460" as="sourcePoint" />
            <mxPoint x="890" y="461" as="targetPoint" />
            <Array as="points" />
            <mxPoint as="offset" />
          </mxGeometry>
        </mxCell>
        <mxCell id="jO8XkhJTbPjd5lJuH_p3-45" value="ALT" style="shape=umlFrame;whiteSpace=wrap;html=1;pointerEvents=0;recursiveResize=0;container=1;collapsible=0;width=60;height=30;" vertex="1" parent="1">
          <mxGeometry x="200" y="310" width="1220" height="210" as="geometry" />
        </mxCell>
        <mxCell id="jO8XkhJTbPjd5lJuH_p3-52" value="" style="html=1;points=[[0,0,0,0,5],[0,1,0,0,-5],[1,0,0,0,5],[1,1,0,0,-5]];perimeter=orthogonalPerimeter;outlineConnect=0;targetShapes=umlLifeline;portConstraint=eastwest;newEdgeStyle={&quot;curved&quot;:0,&quot;rounded&quot;:0};strokeColor=#000000;fillColor=#000000;" vertex="1" parent="jO8XkhJTbPjd5lJuH_p3-45">
          <mxGeometry x="1075" y="120" width="10" height="40" as="geometry" />
        </mxCell>
        <mxCell id="jO8XkhJTbPjd5lJuH_p3-56" value="URLs Válidas" style="html=1;align=left;spacingLeft=2;endArrow=block;rounded=0;edgeStyle=orthogonalEdgeStyle;curved=0;rounded=0;" edge="1" parent="jO8XkhJTbPjd5lJuH_p3-45">
          <mxGeometry x="-0.2941" relative="1" as="geometry">
            <mxPoint x="1085" y="170" as="sourcePoint" />
            <Array as="points">
              <mxPoint x="1115" y="170" />
              <mxPoint x="1115" y="200" />
            </Array>
            <mxPoint x="1090" y="200" as="targetPoint" />
            <mxPoint as="offset" />
          </mxGeometry>
        </mxCell>
        <mxCell id="jO8XkhJTbPjd5lJuH_p3-57" value="Filtrar(Links)" style="html=1;align=left;spacingLeft=2;endArrow=block;rounded=0;edgeStyle=orthogonalEdgeStyle;curved=0;rounded=0;" edge="1" parent="jO8XkhJTbPjd5lJuH_p3-45">
          <mxGeometry x="-0.2941" relative="1" as="geometry">
            <mxPoint x="1085" y="130" as="sourcePoint" />
            <Array as="points">
              <mxPoint x="1115" y="130" />
              <mxPoint x="1115" y="160" />
            </Array>
            <mxPoint x="1090" y="160" as="targetPoint" />
            <mxPoint as="offset" />
          </mxGeometry>
        </mxCell>
        <mxCell id="jO8XkhJTbPjd5lJuH_p3-40" style="edgeStyle=orthogonalEdgeStyle;rounded=0;orthogonalLoop=1;jettySize=auto;html=1;entryX=-0.15;entryY=0.704;entryDx=0;entryDy=0;entryPerimeter=0;exitX=0.9;exitY=0.37;exitDx=0;exitDy=0;exitPerimeter=0;" edge="1" parent="jO8XkhJTbPjd5lJuH_p3-45">
          <mxGeometry relative="1" as="geometry">
            <mxPoint x="690" y="90.00000000000011" as="sourcePoint" />
            <mxPoint x="867" y="90.07999999999993" as="targetPoint" />
            <Array as="points" />
          </mxGeometry>
        </mxCell>
        <mxCell id="jO8XkhJTbPjd5lJuH_p3-41" value="ExtrairLinks(Conteúdo)" style="edgeLabel;html=1;align=center;verticalAlign=middle;resizable=0;points=[];" vertex="1" connectable="0" parent="jO8XkhJTbPjd5lJuH_p3-40">
          <mxGeometry x="0.3241" y="2" relative="1" as="geometry">
            <mxPoint x="-31" y="-8" as="offset" />
          </mxGeometry>
        </mxCell>
        <mxCell id="jO8XkhJTbPjd5lJuH_p3-43" style="edgeStyle=orthogonalEdgeStyle;rounded=0;orthogonalLoop=1;jettySize=auto;html=1;entryX=-0.15;entryY=0.704;entryDx=0;entryDy=0;entryPerimeter=0;exitX=0.9;exitY=0.37;exitDx=0;exitDy=0;exitPerimeter=0;" edge="1" parent="jO8XkhJTbPjd5lJuH_p3-45">
          <mxGeometry relative="1" as="geometry">
            <mxPoint x="890" y="104.50000000000011" as="sourcePoint" />
            <mxPoint x="1067" y="104.57999999999993" as="targetPoint" />
            <Array as="points" />
          </mxGeometry>
        </mxCell>
        <mxCell id="jO8XkhJTbPjd5lJuH_p3-44" value="RemoverDuplicatas(Links)" style="edgeLabel;html=1;align=center;verticalAlign=middle;resizable=0;points=[];" vertex="1" connectable="0" parent="jO8XkhJTbPjd5lJuH_p3-43">
          <mxGeometry x="0.3241" y="2" relative="1" as="geometry">
            <mxPoint x="-31" y="-8" as="offset" />
          </mxGeometry>
        </mxCell>
        <mxCell id="jO8XkhJTbPjd5lJuH_p3-59" value="" style="endArrow=none;dashed=1;html=1;rounded=0;entryX=0.5;entryY=1;entryDx=0;entryDy=0;" edge="1" parent="1">
          <mxGeometry width="50" height="50" relative="1" as="geometry">
            <mxPoint x="879.5" y="250" as="sourcePoint" />
            <mxPoint x="879.5" y="170" as="targetPoint" />
            <Array as="points">
              <mxPoint x="879.5" y="220" />
            </Array>
          </mxGeometry>
        </mxCell>
        <mxCell id="jO8XkhJTbPjd5lJuH_p3-60" value="" style="endArrow=none;dashed=1;html=1;rounded=0;entryX=0.5;entryY=1;entryDx=0;entryDy=0;" edge="1" parent="1">
          <mxGeometry width="50" height="50" relative="1" as="geometry">
            <mxPoint x="1079.5" y="250" as="sourcePoint" />
            <mxPoint x="1079.5" y="170" as="targetPoint" />
            <Array as="points">
              <mxPoint x="1079.5" y="220" />
            </Array>
          </mxGeometry>
        </mxCell>
        <mxCell id="jO8XkhJTbPjd5lJuH_p3-61" value="" style="endArrow=none;dashed=1;html=1;rounded=0;entryX=0.5;entryY=1;entryDx=0;entryDy=0;" edge="1" parent="1">
          <mxGeometry width="50" height="50" relative="1" as="geometry">
            <mxPoint x="1279.5" y="250" as="sourcePoint" />
            <mxPoint x="1279.5" y="170" as="targetPoint" />
            <Array as="points">
              <mxPoint x="1279.5" y="220" />
            </Array>
          </mxGeometry>
        </mxCell>
      </root>
    </mxGraphModel>
  </diagram>
</mxfile>
